<svg xmlns="http://www.w3.org/2000/svg" xmlns:xlink="http://www.w3.org/1999/xlink" width="500" zoomAndPan="magnify" viewBox="0 0 375 374.999991" height="500" preserveAspectRatio="xMidYMid meet" version="1.0"><defs><clipPath id="d4091fc227"><path d="M 103.425781 149.117188 L 312 149.117188 L 312 307.40625 L 103.425781 307.40625 Z M 103.425781 149.117188 " clip-rule="nonzero"/></clipPath><clipPath id="344619f850"><path d="M 268.425781 131.277344 L 320.175781 131.277344 L 320.175781 188.761719 L 268.425781 188.761719 Z M 268.425781 131.277344 " clip-rule="nonzero"/></clipPath><clipPath id="b0cc07024a"><path d="M 54.722656 0 L 134.144531 0 L 134.144531 375 L 54.722656 375 Z M 54.722656 0 " clip-rule="nonzero"/></clipPath><clipPath id="d38f007604"><path d="M 60.410156 6.429688 L 244.480469 6.429688 L 244.480469 368.960938 L 60.410156 368.960938 Z M 60.410156 6.429688 " clip-rule="nonzero"/></clipPath><clipPath id="e38a465e15"><path d="M 67.710938 16.324219 L 319.988281 16.324219 L 319.988281 358.300781 L 67.710938 358.300781 Z M 67.710938 16.324219 " clip-rule="nonzero"/></clipPath><clipPath id="edc08ace66"><path d="M 178.546875 58 L 249 58 L 249 129 L 178.546875 129 Z M 178.546875 58 " clip-rule="nonzero"/></clipPath></defs><path stroke-linecap="butt" transform="matrix(0.000000000000000046, -0.749049, 0.75, 0.000000000000000046, 139.016436, 298.027041)" fill="none" stroke-linejoin="miter" d="M -0.000403873 23.49892 L 160.207949 23.49892 " stroke="#000000" stroke-width="47" stroke-opacity="1" stroke-miterlimit="4"/><path stroke-linecap="butt" transform="matrix(0.000000000000000046, -0.749643, 0.75, 0.000000000000000046, 197.189728, 298.028126)" fill="none" stroke-linejoin="miter" d="M 0.00104354 23.50224 L 197.100008 23.50224 " stroke="#000000" stroke-width="47" stroke-opacity="1" stroke-miterlimit="4"/><path stroke-linecap="butt" transform="matrix(0.000000000000000046, -0.750924, 0.75, 0.000000000000000046, 254.300671, 298.02798)" fill="none" stroke-linejoin="miter" d="M 0.000846796 23.500149 L 253.693579 23.500149 " stroke="#000000" stroke-width="47" stroke-opacity="1" stroke-miterlimit="4"/><g clip-path="url(#d4091fc227)"><path fill="#31ee50" d="M 298.519531 149.523438 L 232.941406 234.777344 L 206.425781 181.5625 L 86.59375 319.78125 L 122.53125 320.035156 L 205.035156 223.933594 L 230.011719 274.414062 L 311.722656 158.652344 L 298.519531 149.523438 " fill-opacity="1" fill-rule="nonzero"/></g><g clip-path="url(#344619f850)"><path fill="#31ee50" d="M 320.574219 131.277344 L 316.007812 188.328125 L 300.449219 160.480469 L 268.894531 155.847656 L 320.574219 131.277344 " fill-opacity="1" fill-rule="nonzero"/></g><g clip-path="url(#b0cc07024a)"><path fill="#000000" d="M 247.203125 380.167969 C 140.863281 380.167969 54.722656 293.433594 54.722656 187.691406 C 54.722656 81.945312 140.863281 -4.789062 247.203125 -4.789062 C 353.542969 -4.789062 439.679688 81.351562 439.679688 187.691406 C 439.679688 294.027344 352.945312 380.167969 247.203125 380.167969 Z M 247.203125 7.09375 C 147.398438 7.09375 66.605469 87.886719 66.605469 187.691406 C 66.605469 287.492188 147.398438 368.289062 247.203125 368.289062 C 347.007812 368.289062 427.800781 287.492188 427.800781 187.691406 C 427.800781 87.886719 346.414062 7.09375 247.203125 7.09375 Z M 247.203125 7.09375 " fill-opacity="1" fill-rule="nonzero"/></g><g clip-path="url(#d38f007604)"><path fill="#000000" d="M 241.675781 368.960938 C 141.53125 368.960938 60.410156 287.277344 60.410156 187.695312 C 60.410156 88.109375 141.53125 6.429688 241.675781 6.429688 C 341.820312 6.429688 422.941406 87.550781 422.941406 187.695312 C 422.941406 287.835938 341.261719 368.960938 241.675781 368.960938 Z M 241.675781 17.617188 C 147.6875 17.617188 71.601562 93.703125 71.601562 187.695312 C 71.601562 281.683594 147.6875 357.769531 241.675781 357.769531 C 335.667969 357.769531 411.753906 281.683594 411.753906 187.695312 C 411.753906 93.703125 335.105469 17.617188 241.675781 17.617188 Z M 241.675781 17.617188 " fill-opacity="1" fill-rule="nonzero"/></g><g clip-path="url(#e38a465e15)"><path fill="#000000" d="M 238.699219 358.300781 C 144.234375 358.300781 67.710938 281.25 67.710938 187.3125 C 67.710938 93.375 144.234375 16.324219 238.699219 16.324219 C 333.164062 16.324219 409.6875 92.84375 409.6875 187.3125 C 409.6875 281.777344 332.636719 358.300781 238.699219 358.300781 Z M 238.699219 26.878906 C 150.039062 26.878906 78.265625 98.652344 78.265625 187.3125 C 78.265625 275.972656 150.039062 347.746094 238.699219 347.746094 C 327.359375 347.746094 399.132812 275.972656 399.132812 187.3125 C 399.132812 98.652344 326.832031 26.878906 238.699219 26.878906 Z M 238.699219 26.878906 " fill-opacity="1" fill-rule="nonzero"/></g><path fill="#ffffff" d="M 243.4375 92.289062 C 243.4375 93.28125 243.386719 94.273438 243.289062 95.257812 C 243.191406 96.246094 243.046875 97.226562 242.851562 98.199219 C 242.660156 99.171875 242.417969 100.132812 242.128906 101.085938 C 241.839844 102.035156 241.503906 102.96875 241.125 103.882812 C 240.746094 104.800781 240.320312 105.695312 239.851562 106.570312 C 239.382812 107.445312 238.871094 108.296875 238.320312 109.121094 C 237.765625 109.945312 237.175781 110.742188 236.542969 111.507812 C 235.914062 112.277344 235.246094 113.011719 234.542969 113.710938 C 233.839844 114.414062 233.101562 115.078125 232.332031 115.707031 C 231.566406 116.339844 230.765625 116.929688 229.941406 117.480469 C 229.113281 118.03125 228.261719 118.539062 227.382812 119.007812 C 226.507812 119.476562 225.609375 119.898438 224.6875 120.28125 C 223.769531 120.660156 222.835938 120.992188 221.882812 121.28125 C 220.929688 121.570312 219.96875 121.808594 218.992188 122.003906 C 218.015625 122.195312 217.035156 122.34375 216.042969 122.441406 C 215.054688 122.539062 214.0625 122.585938 213.066406 122.585938 C 212.074219 122.585938 211.082031 122.539062 210.089844 122.441406 C 209.101562 122.34375 208.117188 122.195312 207.140625 122.003906 C 206.167969 121.808594 205.203125 121.570312 204.25 121.28125 C 203.300781 120.992188 202.363281 120.660156 201.445312 120.28125 C 200.527344 119.898438 199.628906 119.476562 198.75 119.007812 C 197.875 118.539062 197.023438 118.03125 196.195312 117.480469 C 195.367188 116.929688 194.570312 116.339844 193.800781 115.707031 C 193.03125 115.078125 192.296875 114.414062 191.59375 113.710938 C 190.890625 113.011719 190.222656 112.277344 189.589844 111.507812 C 188.960938 110.742188 188.367188 109.945312 187.816406 109.121094 C 187.261719 108.296875 186.753906 107.445312 186.285156 106.570312 C 185.816406 105.695312 185.390625 104.800781 185.007812 103.882812 C 184.628906 102.96875 184.292969 102.035156 184.003906 101.085938 C 183.714844 100.132812 183.476562 99.171875 183.28125 98.199219 C 183.085938 97.226562 182.941406 96.246094 182.84375 95.257812 C 182.746094 94.273438 182.699219 93.28125 182.699219 92.289062 C 182.699219 91.296875 182.746094 90.308594 182.84375 89.320312 C 182.941406 88.332031 183.085938 87.351562 183.28125 86.378906 C 183.476562 85.40625 183.714844 84.445312 184.003906 83.496094 C 184.292969 82.546875 184.628906 81.613281 185.007812 80.695312 C 185.390625 79.777344 185.816406 78.882812 186.285156 78.007812 C 186.753906 77.132812 187.261719 76.28125 187.816406 75.457031 C 188.367188 74.632812 188.960938 73.835938 189.589844 73.070312 C 190.222656 72.304688 190.890625 71.570312 191.59375 70.867188 C 192.296875 70.164062 193.03125 69.5 193.800781 68.871094 C 194.570312 68.242188 195.367188 67.652344 196.195312 67.097656 C 197.023438 66.546875 197.875 66.039062 198.75 65.570312 C 199.628906 65.101562 200.527344 64.679688 201.445312 64.300781 C 202.363281 63.921875 203.300781 63.585938 204.25 63.296875 C 205.203125 63.011719 206.167969 62.769531 207.140625 62.574219 C 208.117188 62.382812 209.101562 62.238281 210.089844 62.140625 C 211.082031 62.042969 212.074219 61.992188 213.066406 61.992188 C 214.0625 61.992188 215.054688 62.042969 216.042969 62.140625 C 217.035156 62.238281 218.015625 62.382812 218.992188 62.574219 C 219.96875 62.769531 220.929688 63.011719 221.882812 63.296875 C 222.835938 63.585938 223.769531 63.921875 224.6875 64.300781 C 225.609375 64.679688 226.507812 65.101562 227.382812 65.570312 C 228.261719 66.039062 229.113281 66.546875 229.941406 67.097656 C 230.765625 67.652344 231.566406 68.242188 232.332031 68.871094 C 233.101562 69.5 233.839844 70.164062 234.542969 70.867188 C 235.246094 71.570312 235.914062 72.304688 236.542969 73.070312 C 237.175781 73.835938 237.765625 74.632812 238.320312 75.457031 C 238.871094 76.28125 239.382812 77.132812 239.851562 78.007812 C 240.320312 78.882812 240.746094 79.777344 241.125 80.695312 C 241.503906 81.613281 241.839844 82.546875 242.128906 83.496094 C 242.417969 84.445312 242.660156 85.40625 242.851562 86.378906 C 243.046875 87.351562 243.191406 88.332031 243.289062 89.320312 C 243.386719 90.308594 243.4375 91.296875 243.4375 92.289062 Z M 243.4375 92.289062 " fill-opacity="1" fill-rule="nonzero"/><g clip-path="url(#edc08ace66)"><path fill="#31ee50" d="M 239.730469 70.222656 C 239.292969 69.726562 238.847656 69.246094 238.386719 68.777344 C 237.921875 68.308594 237.449219 67.851562 236.960938 67.410156 C 236.472656 66.96875 235.972656 66.542969 235.460938 66.128906 C 234.953125 65.714844 234.429688 65.316406 233.894531 64.929688 C 233.359375 64.546875 232.816406 64.179688 232.261719 63.824219 C 231.703125 63.472656 231.140625 63.132812 230.566406 62.8125 C 229.992188 62.492188 229.410156 62.183594 228.816406 61.898438 C 228.226562 61.609375 227.625 61.335938 227.019531 61.082031 C 226.410156 60.828125 225.796875 60.589844 225.175781 60.367188 C 224.558594 60.148438 223.929688 59.945312 223.296875 59.761719 C 222.667969 59.578125 222.03125 59.410156 221.386719 59.261719 C 220.746094 59.113281 220.101562 58.980469 219.453125 58.867188 C 218.804688 58.753906 218.152344 58.660156 217.496094 58.585938 C 216.84375 58.511719 216.1875 58.453125 215.53125 58.414062 C 214.871094 58.375 214.214844 58.355469 213.554688 58.355469 C 212.898438 58.351562 212.238281 58.367188 211.582031 58.40625 C 210.925781 58.441406 210.269531 58.496094 209.613281 58.566406 C 208.957031 58.640625 208.308594 58.730469 207.65625 58.839844 C 207.007812 58.949219 206.363281 59.078125 205.71875 59.222656 C 205.078125 59.367188 204.441406 59.53125 203.808594 59.714844 C 203.175781 59.894531 202.546875 60.09375 201.925781 60.3125 C 201.304688 60.53125 200.6875 60.765625 200.082031 61.015625 C 199.472656 61.269531 198.871094 61.539062 198.277344 61.824219 C 197.6875 62.109375 197.101562 62.410156 196.527344 62.730469 C 195.949219 63.050781 195.382812 63.382812 194.828125 63.734375 C 194.269531 64.085938 193.722656 64.453125 193.1875 64.832031 C 192.652344 65.214844 192.125 65.613281 191.613281 66.023438 C 191.097656 66.433594 190.597656 66.859375 190.109375 67.300781 C 189.617188 67.738281 189.140625 68.191406 188.675781 68.65625 C 188.214844 69.125 187.761719 69.605469 187.328125 70.09375 C 186.890625 70.585938 186.46875 71.089844 186.058594 71.605469 C 185.652344 72.121094 185.257812 72.648438 184.878906 73.1875 C 184.089844 74.308594 183.367188 75.472656 182.710938 76.675781 C 180.226562 81.285156 178.855469 86.203125 178.601562 91.429688 C 178.574219 92.015625 178.554688 92.609375 178.554688 93.199219 C 178.554688 93.902344 178.578125 94.601562 178.617188 95.304688 C 178.660156 96.003906 178.722656 96.699219 178.808594 97.398438 C 178.894531 98.09375 179 98.785156 179.125 99.476562 C 179.25 100.164062 179.398438 100.851562 179.566406 101.53125 C 179.734375 102.214844 179.921875 102.886719 180.132812 103.558594 C 180.339844 104.226562 180.570312 104.890625 180.816406 105.546875 C 181.066406 106.203125 181.335938 106.851562 181.621094 107.488281 C 181.910156 108.128906 182.21875 108.761719 182.542969 109.382812 C 182.871094 110.003906 183.214844 110.613281 183.578125 111.214844 C 183.941406 111.8125 184.324219 112.402344 184.722656 112.980469 C 185.121094 113.558594 185.535156 114.121094 185.96875 114.675781 C 186.402344 115.226562 186.851562 115.765625 187.316406 116.292969 C 187.78125 116.816406 188.261719 117.328125 188.761719 117.824219 C 189.257812 118.320312 189.765625 118.800781 190.292969 119.269531 C 190.820312 119.734375 191.359375 120.183594 191.910156 120.617188 C 192.464844 121.050781 193.027344 121.464844 193.605469 121.863281 C 194.183594 122.265625 194.773438 122.644531 195.375 123.007812 C 195.976562 123.371094 196.589844 123.71875 197.210938 124.042969 C 197.832031 124.371094 198.464844 124.679688 199.105469 124.96875 C 199.746094 125.257812 200.394531 125.527344 201.050781 125.777344 C 201.707031 126.027344 202.371094 126.253906 203.042969 126.464844 C 203.710938 126.675781 204.386719 126.863281 205.070312 127.035156 C 205.753906 127.203125 206.441406 127.351562 207.132812 127.476562 C 207.820312 127.605469 208.515625 127.710938 209.214844 127.796875 C 209.910156 127.882812 210.613281 127.949219 211.3125 127.992188 C 212.015625 128.035156 212.71875 128.058594 213.421875 128.0625 C 214.121094 128.0625 214.824219 128.042969 215.527344 128 C 216.230469 127.960938 216.929688 127.898438 217.625 127.816406 C 218.324219 127.734375 219.019531 127.628906 219.710938 127.503906 C 220.402344 127.378906 221.089844 127.234375 221.773438 127.066406 C 222.457031 126.902344 223.132812 126.714844 223.804688 126.507812 C 224.476562 126.300781 225.140625 126.074219 225.800781 125.828125 C 226.457031 125.578125 227.105469 125.3125 227.75 125.027344 C 228.390625 124.742188 229.023438 124.433594 229.648438 124.109375 C 230.269531 123.785156 230.882812 123.445312 231.484375 123.082031 C 232.089844 122.722656 232.679688 122.34375 233.257812 121.945312 C 233.839844 121.550781 234.40625 121.136719 234.960938 120.703125 C 235.515625 120.273438 236.054688 119.828125 236.582031 119.363281 C 237.109375 118.898438 237.625 118.421875 238.121094 117.925781 C 238.621094 117.433594 239.105469 116.921875 239.570312 116.398438 C 240.039062 115.875 240.492188 115.339844 240.925781 114.789062 C 241.363281 114.238281 241.78125 113.675781 242.179688 113.097656 C 242.582031 112.523438 242.964844 111.933594 243.332031 111.335938 C 243.695312 110.738281 244.042969 110.128906 244.371094 109.507812 C 244.703125 108.886719 245.011719 108.257812 245.300781 107.621094 C 245.59375 106.980469 245.863281 106.335938 246.113281 105.679688 C 246.367188 105.027344 246.597656 104.363281 246.808594 103.695312 C 247.019531 103.027344 247.210938 102.351562 247.382812 101.671875 C 247.554688 100.992188 247.703125 100.304688 247.832031 99.617188 C 247.960938 98.929688 248.070312 98.234375 248.15625 97.539062 C 248.246094 96.84375 248.3125 96.144531 248.355469 95.445312 C 248.402344 94.746094 248.425781 94.046875 248.429688 93.34375 C 248.429688 92.644531 248.414062 91.941406 248.371094 91.242188 C 248.332031 90.542969 248.273438 89.84375 248.191406 89.148438 C 248.109375 88.449219 248.003906 87.757812 247.882812 87.066406 C 247.757812 86.375 247.613281 85.691406 247.449219 85.007812 C 247.28125 84.328125 247.097656 83.652344 246.890625 82.980469 C 246.683594 82.3125 246.457031 81.648438 246.210938 80.992188 C 245.964844 80.335938 245.699219 79.683594 245.414062 79.042969 C 245.128906 78.402344 244.824219 77.773438 244.5 77.148438 C 244.175781 76.527344 243.832031 75.914062 243.472656 75.3125 C 243.109375 74.710938 242.730469 74.121094 242.335938 73.542969 C 241.9375 72.964844 241.523438 72.398438 241.09375 71.84375 C 240.664062 71.289062 240.214844 70.75 239.75 70.222656 Z M 201.824219 98.011719 C 204.773438 100.082031 207.535156 101.320312 210.390625 101.78125 L 210.390625 96.253906 C 202.972656 94.554688 199.199219 92.03125 199.199219 86.332031 L 199.199219 86.238281 C 199.199219 80.816406 203.160156 77.050781 210.207031 76.546875 L 210.207031 73.925781 L 215 73.925781 L 215 76.679688 C 218.542969 77.050781 221.78125 78.246094 224.710938 80.265625 L 220.9375 86.421875 C 219.050781 85.128906 216.992188 84.21875 214.765625 83.6875 L 214.765625 89.019531 C 222.074219 90.71875 225.773438 93.335938 225.773438 99.042969 L 225.773438 99.132812 C 225.773438 104.734375 221.441406 108.179688 214.902344 108.78125 L 214.902344 113.28125 L 210.117188 113.28125 L 210.117188 108.660156 C 205.574219 108.222656 201.425781 106.707031 197.679688 104.101562 Z M 201.824219 98.011719 " fill-opacity="1" fill-rule="nonzero"/></g><path fill="#31ee50" d="M 217.808594 99.703125 L 217.808594 99.609375 C 217.808594 98.367188 217.113281 97.679688 214.71875 96.992188 L 214.71875 102.042969 C 216.839844 101.816406 217.808594 101.03125 217.808594 99.703125 Z M 217.808594 99.703125 " fill-opacity="1" fill-rule="nonzero"/><path fill="#31ee50" d="M 210.4375 83.25 C 208.179688 83.4375 207.304688 84.359375 207.304688 85.550781 L 207.304688 85.644531 C 207.304688 86.835938 207.953125 87.523438 210.4375 88.21875 Z M 210.4375 83.25 " fill-opacity="1" fill-rule="nonzero"/></svg>